<svg xmlns="http://www.w3.org/2000/svg"  viewBox="0 0 64 64" width="64px" height="64px"><path fill="#c5e4fa" d="M10.763,9.968h50v40h-50V9.968z"/><path fill="#e3f2ff" d="M60.763,30.539L41.334,49.968h18.215l1.214-1.214V30.539z M60.763,18.397L29.192,49.968h7.285 l24.286-24.286V18.397z M60.763,9.968v3.57l-36.43,36.43h-6.07l40-40H60.763z"/><path fill="#faefde" d="M12.763,5.968c-2.761,0-5,2.239-5,5s2.239,5,5,5s5-2.239,5-5S15.524,5.968,12.763,5.968z"/><path fill="#f7cc8f" d="M19.763,37.968V26.593l2.464,1.663c1.653,1.116,3.601,1.712,5.595,1.712h4.441 c1.381,0,2.5-1.119,2.5-2.5l0,0c0-1.381-1.119-2.5-2.5-2.5h-2.98c-1.054,0-2.081-0.333-2.934-0.951l-4.159-3.014 c-0.944-0.684-2-1.198-3.121-1.518l-1.374-0.393c-2.569-0.734-5.293-0.734-7.863,0H9.831c-1.996,0.57-3.765,1.747-5.061,3.368l0,0 c-1.299,1.623-2.007,3.641-2.007,5.72v9.288c0,1.381,1.119,2.5,2.5,2.5l0,0c1.381,0,2.5-1.119,2.5-2.5V26.635v11.333L6.906,56.832 c-0.078,1.708,1.286,3.136,2.996,3.136h0.007c1.599,0,2.916-1.254,2.996-2.85l0.858-17.15l0,0l0.857,17.15 c0.08,1.597,1.398,2.85,2.996,2.85h0.007c1.71,0,3.075-1.428,2.997-3.136L19.763,37.968z"/><path fill="#8d6c9f" d="M56.763,17.025c0.553,0,1-0.448,1-1v-2c0-0.552-0.447-1-1-1s-1,0.448-1,1v2 C55.763,16.577,56.21,17.025,56.763,17.025z M51.763,17.025c0.553,0,1-0.448,1-1v-2c0-0.552-0.447-1-1-1s-1,0.448-1,1v2 C50.763,16.577,51.21,17.025,51.763,17.025z M46.763,17.025c0.553,0,1-0.448,1-1v-2c0-0.552-0.447-1-1-1s-1,0.448-1,1v2 C45.763,16.577,46.21,17.025,46.763,17.025z M41.763,17.025c0.553,0,1-0.448,1-1v-2c0-0.552-0.447-1-1-1s-1,0.448-1,1v2 C40.763,16.577,41.21,17.025,41.763,17.025z M36.763,13.025c-0.553,0-1,0.448-1,1v2c0,0.552,0.447,1,1,1s1-0.448,1-1v-2 C37.763,13.473,37.316,13.025,36.763,13.025z M31.763,13.025c-0.553,0-1,0.448-1,1v2c0,0.552,0.447,1,1,1s1-0.448,1-1v-2 C32.763,13.473,32.316,13.025,31.763,13.025z M26.763,13.025c-0.553,0-1,0.448-1,1v2c0,0.552,0.447,1,1,1s1-0.448,1-1v-2 C27.763,13.473,27.316,13.025,26.763,13.025z M21.763,13.025c-0.553,0-1,0.448-1,1v2c0,0.552,0.447,1,1,1s1-0.448,1-1v-2 C22.763,13.473,22.316,13.025,21.763,13.025z M36.763,43.025h-4c-0.553,0-1,0.448-1,1s0.447,1,1,1h4c0.553,0,1-0.448,1-1 S37.316,43.025,36.763,43.025z"/><path fill="#8d6c9f" d="M59,8.998H18.65c-0.878-2.525-3.426-4.274-6.317-3.962c-2.644,0.286-4.848,2.373-5.258,4.999 c-0.407,2.61,0.88,4.973,2.925,6.148v1.919c-0.07,0.01-0.14,0.03-0.21,0.05c-2.2,0.63-4.13,1.909-5.56,3.708 C2.79,23.649,2,25.908,2,28.197l0,9.082c0,1.963,1.606,3.739,3.57,3.701C6.034,40.97,6.47,40.871,6.88,40.7L6.149,56.59 c-0.045,0.969,0.187,1.954,0.763,2.735c0.776,1.054,1.953,1.643,3.238,1.643c1.83,0,3.38-1.229,3.85-2.918 c0.47,1.689,2.02,2.918,3.86,2.918c1.275,0,2.456-0.591,3.232-1.648c0.574-0.782,0.804-1.767,0.759-2.736l-0.26-5.61l37.408,0.029 C60.655,51.005,62,49.662,62,48.005V11.996C62,10.347,60.65,8.998,59,8.998z M9,10.997c0-2.209,1.79-3.998,4-3.998 c1.48,0,2.77,0.8,3.46,1.999C16.8,9.587,17,10.267,17,10.997c0,2.209-1.79,3.998-4,3.998c-0.35,0-0.68-0.04-1-0.13 c-0.79-0.2-1.48-0.64-2-1.229C9.38,12.926,9,12.006,9,10.997z M20.56,25.788c-0.31-0.21-0.7-0.23-1.03-0.06 c-0.33,0.18-0.53,0.52-0.53,0.88v11.424l0.5,10.944l0.09,1.999l0.27,5.907c0.02,0.55-0.17,1.069-0.55,1.469 c-0.38,0.4-0.9,0.62-1.46,0.62c-1.06,0-1.94-0.83-1.99-1.899l-0.31-6.097l-0.1-1.999L15,39.93c-0.03-0.53-0.47-0.949-1-0.949 c-0.53,0-0.97,0.42-1,0.949l-0.45,8.935l-0.1,2.059l-0.31,6.147c-0.05,1.069-0.93,1.899-2,1.899c-0.55,0-1.07-0.22-1.45-0.62 c-0.38-0.4-0.57-0.92-0.55-1.469L9,37.981V26.658c0-0.56-0.45-0.999-1-0.999s-1,0.44-1,0.999v10.824c0,0.829-0.67,1.499-1.5,1.499 S4,38.311,4,37.482v-9.285c0-1.839,0.63-3.648,1.79-5.087c1.09-1.379,2.55-2.379,4.21-2.928c0.11-0.04,0.22-0.08,0.34-0.11 c0.55-0.16,1.1-0.27,1.66-0.35c1.89-0.29,3.81-0.17,5.66,0.35l1.37,0.4c1.01,0.29,1.96,0.75,2.81,1.359L26,24.849 c1.03,0.74,2.25,1.139,3.52,1.139h2.98c0.83,0,1.5,0.67,1.5,1.499c0,0.829-0.67,1.499-1.5,1.499h-4.44c-1.8,0-3.54-0.53-5.04-1.539 L20.56,25.788z M58.999,49.006L21.5,48.975l-0.179-3.941H29c0.553,0,1-0.448,1-0.999c0-0.552-0.447-0.999-1-0.999h-7.77L21,37.961 v-9.465l0.91,0.61c1.828,1.225,3.98,1.879,6.181,1.879H32.4c1.67,0,3.19-1.128,3.525-2.764c0.46-2.248-1.255-4.232-3.425-4.232 h-2.98c-0.847,0-1.672-0.268-2.358-0.765l-4.152-3.013c-1.04-0.75-2.19-1.309-3.43-1.669l-1.37-0.39 c-2.03-0.57-4.14-0.73-6.21-0.45v-0.8c0.32,0.06,0.66,0.09,1,0.09c3.31,0,6-2.688,6-5.997h40c0.55,0,1,0.45,1,0.999v36.01 C60,48.559,59.552,49.006,58.999,49.006z"/><path fill="#fff" d="M42.261,23.964l1.238,2.264l2.264,1.238l-2.264,1.238l-1.238,2.264l-1.238-2.264l-2.264-1.238 l2.264-1.238L42.261,23.964z M33.182,17.968l0.855,1.564l1.564,0.855l-1.564,0.855l-0.855,1.564l-0.855-1.564l-1.564-0.855 l1.564-0.855L33.182,17.968z M32.182,36.968l0.501,0.917l0.918,0.502l-0.918,0.501l-0.501,0.918l-0.502-0.918l-0.917-0.501 l0.917-0.502L32.182,36.968z"/></svg>